<svg width="40" height="40" viewBox="0 0 40 40" fill="none" xmlns="http://www.w3.org/2000/svg">
<path fill-rule="evenodd" clip-rule="evenodd" d="M16.9997 16.1754L17.433 16.6215L12.107 1.29404L18.2093 15.6512L18.453 16.2246L18.474 15.6018L19 0L19.526 15.6015L19.547 16.2246L19.7906 15.6515L25.893 1.29404L20.7716 16.0328L20.567 16.6215L21.0003 16.1754L31.8551 5.00141L21.7779 16.8869L21.3755 17.3616L36.081 10.6214L22.4091 18.0484L21.8631 18.345L22.4825 18.3086L38 17.395L21.964 19.439L37.353 24.4074L22.2672 20.6459L21.6646 20.4957L22.1469 20.8878L34.2273 30.7115L21.5132 21.7311L21.0054 21.3724L21.314 21.913L29.0451 35.456L20.4198 22.4694L20.0753 21.9507L22.5062 38L19 22.1526L15.4938 38L17.8313 22.5671L17.9247 21.9507L17.5804 22.4691L8.95494 35.456L16.6858 21.9133L16.9946 21.3724L16.4871 21.7309L3.77271 30.7115L15.8529 20.888L16.3354 20.4957L15.7332 20.6458L0.647022 24.4074L15.445 19.6298L16.036 19.439L0 17.395L16.1369 18.345L15.5912 18.0486L1.91903 10.6214L16.6245 17.3616L6.14495 5.00141L16.9997 16.1754ZM18.1089 16.853L17.3381 17.3323L16.7918 18.0589L16.5437 18.9346L16.6273 19.8411L17.0314 20.6561L17.7014 21.2695L18.5467 21.5984H19.4533L20.2986 21.2695L20.9686 20.6561L21.3727 19.8411L21.4563 18.9346L21.2082 18.0589L20.6619 17.3323L19.8911 16.853L19 16.6857L18.1089 16.853Z" fill="#242424"/>
</svg>